<svg xmlns="http://www.w3.org/2000/svg" width="86" height="86" viewBox="0 0 86 86">
  <g id="cyber-security" transform="translate(-579 -221)">
    <rect id="Box" width="86" height="86" rx="12" transform="translate(579 221)" fill="#edecff"/>
    <g id="security" transform="translate(599.922 241)">
      <path id="Path_70" data-name="Path 70" d="M35.576,9.821,10.558,34.839a2.148,2.148,0,0,1-3.282-.3,23.309,23.309,0,0,1-4.2-13.106V12.08A5.137,5.137,0,0,1,6.019,7.69l11.87-4.859a10.911,10.911,0,0,1,8.354,0l8.631,3.516A2.134,2.134,0,0,1,35.576,9.821Z" fill="#b4adff"/>
      <path id="Path_71" data-name="Path 71" d="M32.9,7.31A2.127,2.127,0,0,1,36.4,8.95V16c0,10.421-7.565,20.181-17.9,23.036a4.258,4.258,0,0,1-2.195,0,24.079,24.079,0,0,1-8.247-4.155,2.142,2.142,0,0,1-.234-3.2C12.468,26.936,26.064,13.085,32.9,7.31Z" transform="translate(4.679 5.434)" fill="#4a3aff"/>
    </g>
  </g>
</svg>
