<svg id="logo_nuhtek" xmlns="http://www.w3.org/2000/svg" width="190" height="47.692" viewBox="0 0 190 47.692">
  <g id="Group_4" data-name="Group 4">
    <g id="Group_3" data-name="Group 3">
      <path id="Path_26" data-name="Path 26" d="M0,0V47.385H19.169V29.6l9.354,17.789H47.385V43.7C47.385,19.629,27.6,0,3.067,0Z" fill="#4ea4d9"/>
      <path id="Path_27" data-name="Path 27" d="M17.6,0H37.842V20.089h-.153l-.767-2.914A22.611,22.611,0,0,0,20.514.92L17.6,0Z" transform="translate(9.39)" fill="#012e40"/>
    </g>
  </g>
  <path id="Path_28" data-name="Path 28" d="M37.1,0h5.674L57.189,18.862V0h5.827V28.063H57.189L42.774,9.2V28.063H37.1Z" transform="translate(19.793)" fill="#012e40"/>
  <path id="Path_29" data-name="Path 29" d="M56.9,6.1h5.367V16.221a5.032,5.032,0,0,0,.92,3.22,2.974,2.974,0,0,0,2.607,1.073,3.926,3.926,0,0,0,2.914-1.227,4.32,4.32,0,0,0,1.073-3.22h0V6.1h5.367V24.809H70.395l-.153-2.3A7.9,7.9,0,0,1,67.634,24.5a8.357,8.357,0,0,1-3.374.767,6.533,6.533,0,0,1-5.367-2.3c-1.227-1.533-1.84-3.834-1.84-6.747V6.1Z" transform="translate(30.356 3.254)" fill="#012e40"/>
  <path id="Path_30" data-name="Path 30" d="M72,28.063V0h5.367V11.195a7.391,7.391,0,0,1,5.521-2.147c4.754,0,7.207,3.067,7.207,9.048v9.968H84.728V17.942a5.031,5.031,0,0,0-.92-3.22A2.974,2.974,0,0,0,81.2,13.648a3.926,3.926,0,0,0-2.914,1.227,4.32,4.32,0,0,0-1.073,3.22v9.968Z" transform="translate(38.412)" fill="#012e40"/>
  <path id="Path_31" data-name="Path 31" d="M82.9,5.061V0h21.776V5.061H96.7v23H91.028v-23H82.9Z" transform="translate(44.227)" fill="#012e40"/>
  <path id="Path_32" data-name="Path 32" d="M101.114,17.248a5.131,5.131,0,0,0,1.84,2.607,5.669,5.669,0,0,0,3.22.92,6.714,6.714,0,0,0,3.22-.613,6.405,6.405,0,0,0,2.3-1.687l3.22,3.834a11.794,11.794,0,0,1-4.294,2.3,12.916,12.916,0,0,1-4.14.613A12.709,12.709,0,0,1,100.961,24a9.039,9.039,0,0,1-3.68-3.527,9.652,9.652,0,0,1-1.38-5.061A10.116,10.116,0,0,1,97.127,10.5a9.318,9.318,0,0,1,3.527-3.374,11.051,11.051,0,0,1,10.121,0A9.319,9.319,0,0,1,114.3,10.5a9.193,9.193,0,0,1,1.227,5.061v1.687Zm9.048-3.067a4.344,4.344,0,0,0-1.687-2.607,4.841,4.841,0,0,0-2.914-1.073,4.048,4.048,0,0,0-2.914,1.073,5.166,5.166,0,0,0-1.687,2.607Z" transform="translate(51.162 3.148)" fill="#012e40"/>
  <path id="Path_33" data-name="Path 33" d="M111.2,28.063V0h5.367V17.022a6.809,6.809,0,0,1,1.227-1.687c.46-.613.92-1.073,1.533-1.84l3.68-4.14h5.981l-7.207,8.434,8.588,10.274h-6.594l-5.367-6.287-1.687,1.84v4.447Z" transform="translate(59.325)" fill="#012e40"/>
  <path id="Path_34" data-name="Path 34" d="M37.1,24.1h5.981v1.073H38.327v3.374h4.447v1.073H38.327V33.3h4.907v1.073H37.1V24.1Z" transform="translate(19.793 12.857)" fill="#7e7e7e"/>
  <path id="Path_35" data-name="Path 35" d="M42.5,33.3V26.4h1.073v1.227a2.062,2.062,0,0,1,1.073-.92,4.477,4.477,0,0,1,1.38-.307,2.591,2.591,0,0,1,1.534.46,3.583,3.583,0,0,1,1.073,1.073,3.033,3.033,0,0,1,.307,1.687v3.834H47.867v-3.68a1.778,1.778,0,0,0-.613-1.533,1.5,1.5,0,0,0-1.38-.613,2.216,2.216,0,0,0-1.073.307,1.848,1.848,0,0,0-.767.767,2.216,2.216,0,0,0-.307,1.073v3.834H42.5Z" transform="translate(22.674 14.084)" fill="#7e7e7e"/>
  <path id="Path_36" data-name="Path 36" d="M47.8,31.154a2.2,2.2,0,0,1,.767-1.687,3.245,3.245,0,0,1,2.147-.613,7.7,7.7,0,0,1,1.84.307h0a1.741,1.741,0,0,0-.46-1.227,1.874,1.874,0,0,0-1.38-.46,5.294,5.294,0,0,0-1.994.46l-.46-.92a2.447,2.447,0,0,1,1.227-.46,2.99,2.99,0,0,1,1.227-.153,3.324,3.324,0,0,1,2.147.767,3.034,3.034,0,0,1,.767,2.147V33.3H52.554V32.074l-.92.92a4.478,4.478,0,0,1-1.38.307,2.444,2.444,0,0,1-1.84-.613A2.343,2.343,0,0,1,47.8,31.154Zm3.22-1.227a3.062,3.062,0,0,0-1.38.307.927.927,0,0,0-.46.92,1.325,1.325,0,0,0,.46.92,2.032,2.032,0,0,0,2.147,0,1.848,1.848,0,0,0,.767-.767,2.18,2.18,0,0,0,.307-.92v-.153A11.323,11.323,0,0,0,51.02,29.927Z" transform="translate(25.501 14.084)" fill="#7e7e7e"/>
  <path id="Path_37" data-name="Path 37" d="M53.1,24.1h1.073v4.6a2.751,2.751,0,0,1,1.073-.767,4.478,4.478,0,0,1,1.38-.307,4.083,4.083,0,0,1,1.84.46,4.667,4.667,0,0,1,1.227,1.227,3.27,3.27,0,0,1,.46,1.84,4.083,4.083,0,0,1-.46,1.84,4.667,4.667,0,0,1-1.227,1.227,3.27,3.27,0,0,1-1.84.46,3.662,3.662,0,0,1-1.38-.307,2.751,2.751,0,0,1-1.073-.767v1.073H53.1Zm3.527,9.508a2.889,2.889,0,0,0,1.227-.307,2.6,2.6,0,0,0,.92-.92,1.844,1.844,0,0,0,.307-1.227,2.889,2.889,0,0,0-.307-1.227,2.6,2.6,0,0,0-.92-.92,2.607,2.607,0,0,0-2.454,0,2.6,2.6,0,0,0-.92.92,2.607,2.607,0,0,0,0,2.454,2.6,2.6,0,0,0,.92.92A3.609,3.609,0,0,0,56.627,33.608Z" transform="translate(28.329 12.857)" fill="#7e7e7e"/>
  <path id="Path_38" data-name="Path 38" d="M60.127,23.9V34.634H58.9V23.9Z" transform="translate(31.423 12.751)" fill="#7e7e7e"/>
  <path id="Path_39" data-name="Path 39" d="M68.007,29.72v.46H62.18a3.182,3.182,0,0,0,.92,1.533,2.306,2.306,0,0,0,1.687.613,3.811,3.811,0,0,0,1.227-.153,1.775,1.775,0,0,0,1.073-.767l.613.92a4.085,4.085,0,0,1-1.533.92,4.537,4.537,0,0,1-1.534.307,4.245,4.245,0,0,1-1.994-.46,3.62,3.62,0,0,1-1.38-1.227,3.27,3.27,0,0,1-.46-1.84,4.083,4.083,0,0,1,.46-1.84,4.667,4.667,0,0,1,1.227-1.227,3.91,3.91,0,0,1,3.68,0,3.139,3.139,0,0,1,1.227,1.227A1.778,1.778,0,0,1,68.007,29.72Zm-5.981-.613h4.754a2.107,2.107,0,0,0-.767-1.227,2.786,2.786,0,0,0-3.067,0A2.385,2.385,0,0,0,62.027,29.107Z" transform="translate(32.436 14.138)" fill="#7e7e7e"/>
  <path id="Path_40" data-name="Path 40" d="M69,24.1h3.527a3.371,3.371,0,0,1,2.607.92,3.335,3.335,0,0,1,0,4.6,3.607,3.607,0,0,1-2.607.92h-2.3v4.14H69Zm1.227,1.227v3.987h2.3a1.911,1.911,0,0,0,1.687-.613,1.778,1.778,0,0,0,.613-1.533,1.969,1.969,0,0,0-.613-1.533,2.791,2.791,0,0,0-1.687-.613h-2.3Z" transform="translate(36.811 12.857)" fill="#7e7e7e"/>
  <path id="Path_41" data-name="Path 41" d="M81.307,29.72v.46H75.48a3.182,3.182,0,0,0,.92,1.533,2.306,2.306,0,0,0,1.687.613,3.811,3.811,0,0,0,1.227-.153,1.775,1.775,0,0,0,1.073-.767l.613.92a4.085,4.085,0,0,1-1.533.92,4.537,4.537,0,0,1-1.534.307,4.245,4.245,0,0,1-1.994-.46,3.62,3.62,0,0,1-1.38-1.227,3.27,3.27,0,0,1-.46-1.84,4.083,4.083,0,0,1,.46-1.84,4.667,4.667,0,0,1,1.227-1.227,3.91,3.91,0,0,1,3.68,0,3.139,3.139,0,0,1,1.227,1.227A1.778,1.778,0,0,1,81.307,29.72Zm-5.827-.613h4.6a2.107,2.107,0,0,0-.767-1.227,2.786,2.786,0,0,0-3.067,0A1.564,1.564,0,0,0,75.48,29.107Z" transform="translate(39.532 14.138)" fill="#7e7e7e"/>
  <path id="Path_42" data-name="Path 42" d="M79.9,33.3V26.4h1.073v1.227c.307-.46.46-.767.92-.92.307-.307.767-.307,1.38-.307h.613l-.153,1.227a.922.922,0,0,0-.613-.153,2.129,2.129,0,0,0-1.533.767,3.091,3.091,0,0,0-.46,1.687v3.527H79.9Z" transform="translate(42.626 14.084)" fill="#7e7e7e"/>
  <path id="Path_43" data-name="Path 43" d="M83,28.647V27.574h1.073V26.347a1.778,1.778,0,0,1,.613-1.533A1.969,1.969,0,0,1,86.22,24.2a1.383,1.383,0,0,1,.767.153c.153.153.46.153.613.307l-.46.767c-.153-.307-.46-.307-.767-.307a1.171,1.171,0,0,0-.767.307,1.3,1.3,0,0,0-.307.92v1.227h1.84v1.073H85.3v5.981H84.227V28.647Z" transform="translate(44.28 12.911)" fill="#7e7e7e"/>
  <path id="Path_44" data-name="Path 44" d="M86.4,29.927a4.083,4.083,0,0,1,.46-1.84,4.667,4.667,0,0,1,1.227-1.227,4.083,4.083,0,0,1,1.84-.46,3.643,3.643,0,0,1,1.84.46,3.139,3.139,0,0,1,1.227,1.227,3.271,3.271,0,0,1,.46,1.84,4.083,4.083,0,0,1-.46,1.84,4.667,4.667,0,0,1-1.227,1.227,4.083,4.083,0,0,1-1.84.46,3.643,3.643,0,0,1-1.84-.46,3.139,3.139,0,0,1-1.227-1.227A4.083,4.083,0,0,1,86.4,29.927Zm1.227,0a2.889,2.889,0,0,0,.307,1.227,2.6,2.6,0,0,0,.92.92,2.607,2.607,0,0,0,2.454,0,2.6,2.6,0,0,0,.92-.92,2.607,2.607,0,0,0,0-2.454,2.6,2.6,0,0,0-.92-.92,2.607,2.607,0,0,0-2.454,0,2.6,2.6,0,0,0-.92.92A2.889,2.889,0,0,0,87.627,29.927Z" transform="translate(46.094 14.084)" fill="#7e7e7e"/>
  <path id="Path_45" data-name="Path 45" d="M92.3,33.3V26.4h1.073v1.227c.307-.46.46-.767.92-.92.307-.307.767-.307,1.38-.307h.613l-.153,1.227a.922.922,0,0,0-.613-.153,2.129,2.129,0,0,0-1.534.767,3.091,3.091,0,0,0-.46,1.687v3.527H92.3Z" transform="translate(49.242 14.084)" fill="#7e7e7e"/>
  <path id="Path_46" data-name="Path 46" d="M96.673,26.507v.92c.307-.307.613-.46.92-.767a2.889,2.889,0,0,1,1.227-.307,4.478,4.478,0,0,1,1.38.307,2.062,2.062,0,0,1,.92,1.073,3.583,3.583,0,0,1,1.073-1.073,2.473,2.473,0,0,1,1.38-.46,3.662,3.662,0,0,1,1.38.307,2.062,2.062,0,0,1,.92,1.073,2.522,2.522,0,0,1,.307,1.533V33.1h-.767V29.267a2.889,2.889,0,0,0-.307-1.227,3.346,3.346,0,0,0-.613-.767,1.533,1.533,0,0,0-1.84,0c-.307.153-.46.46-.767.767a2.889,2.889,0,0,0-.307,1.227V33.1h-1.073V29.267a2.889,2.889,0,0,0-.307-1.227,3.346,3.346,0,0,0-.613-.767,1.533,1.533,0,0,0-1.84,0c-.307.153-.46.46-.767.767a1.652,1.652,0,0,0-.307,1.227V33.1H95.6V26.2h1.073Z" transform="translate(51.002 13.978)" fill="#7e7e7e"/>
  <path id="Path_47" data-name="Path 47" d="M103.9,31.154a2.2,2.2,0,0,1,.767-1.687,3.245,3.245,0,0,1,2.147-.613,7.7,7.7,0,0,1,1.84.307h0a1.741,1.741,0,0,0-.46-1.227,1.874,1.874,0,0,0-1.38-.46,5.294,5.294,0,0,0-1.994.46l-.46-.92a2.447,2.447,0,0,1,1.227-.46,2.99,2.99,0,0,1,1.227-.153,3.324,3.324,0,0,1,2.147.767,3.034,3.034,0,0,1,.767,2.147V33.3h-1.073V32.074l-.92.92a4.477,4.477,0,0,1-1.38.307,2.444,2.444,0,0,1-1.84-.613A2.343,2.343,0,0,1,103.9,31.154Zm3.22-1.227a3.062,3.062,0,0,0-1.38.307.927.927,0,0,0-.46.92,1.325,1.325,0,0,0,.46.92,2.032,2.032,0,0,0,2.147,0,1.848,1.848,0,0,0,.767-.767,2.18,2.18,0,0,0,.307-.92v-.153A11.323,11.323,0,0,0,107.12,29.927Z" transform="translate(55.43 14.084)" fill="#7e7e7e"/>
  <path id="Path_48" data-name="Path 48" d="M109.2,33.3V26.4h1.073v1.227a2.062,2.062,0,0,1,1.073-.92,4.478,4.478,0,0,1,1.38-.307,2.591,2.591,0,0,1,1.533.46,3.583,3.583,0,0,1,1.073,1.073,3.033,3.033,0,0,1,.307,1.687v3.834h-1.073v-3.68a1.778,1.778,0,0,0-.613-1.533,1.5,1.5,0,0,0-1.38-.613,2.216,2.216,0,0,0-1.073.307,1.848,1.848,0,0,0-.767.767,2.216,2.216,0,0,0-.307,1.073v3.834H109.2Z" transform="translate(58.258 14.084)" fill="#7e7e7e"/>
  <path id="Path_49" data-name="Path 49" d="M120.481,32.381a4.66,4.66,0,0,1-1.073.767,4.477,4.477,0,0,1-1.38.307,3.27,3.27,0,0,1-1.84-.46,3.139,3.139,0,0,1-1.227-1.227,3.27,3.27,0,0,1-.46-1.84,4.083,4.083,0,0,1,.46-1.84,4.667,4.667,0,0,1,1.227-1.227,4.083,4.083,0,0,1,1.84-.46,3.662,3.662,0,0,1,1.38.307,2.751,2.751,0,0,1,1.073.767l-.767.767a1.531,1.531,0,0,0-.767-.613,2.274,2.274,0,0,0-1.073-.153,2.889,2.889,0,0,0-1.227.307,2.6,2.6,0,0,0-.92.92,2.607,2.607,0,0,0,0,2.454,2.6,2.6,0,0,0,.92.92,2.889,2.889,0,0,0,1.227.307,2.61,2.61,0,0,0,1.073-.153,3.352,3.352,0,0,0,.767-.46Z" transform="translate(61.085 14.084)" fill="#7e7e7e"/>
  <path id="Path_50" data-name="Path 50" d="M126.461,29.72v.46H120.48a3.182,3.182,0,0,0,.92,1.533,2.306,2.306,0,0,0,1.687.613,3.811,3.811,0,0,0,1.227-.153,1.775,1.775,0,0,0,1.073-.767l.613.92a4.086,4.086,0,0,1-1.533.92,4.537,4.537,0,0,1-1.534.307,4.245,4.245,0,0,1-1.994-.46,3.62,3.62,0,0,1-1.38-1.227,3.27,3.27,0,0,1-.46-1.84,4.083,4.083,0,0,1,.46-1.84,4.667,4.667,0,0,1,1.227-1.227,3.91,3.91,0,0,1,3.68,0,3.139,3.139,0,0,1,1.227,1.227A1.557,1.557,0,0,1,126.461,29.72Zm-5.981-.613h4.754a2.107,2.107,0,0,0-.767-1.227,2.786,2.786,0,0,0-3.067,0A1.781,1.781,0,0,0,120.48,29.107Z" transform="translate(63.539 14.138)" fill="#7e7e7e"/>
</svg>
