<svg xmlns="http://www.w3.org/2000/svg" width="82" height="82" viewBox="0 0 82 82">
  <g id="logo_general_electric" transform="translate(-5 -5)">
    <g id="g12" transform="translate(5 5)">
      <path id="path14" d="M46,87A41,41,0,1,0,5,46,41,41,0,0,0,46,87" transform="translate(-5 -5)" fill="#fff"/>
      <path id="path16" d="M55.2,35.325c0-4.662,3.156-9.184,4.878-8.332,1.963.984-1.471,5.375-4.878,8.332m-21.462,1.7c0-3.749,3.7-10.871,5.958-10.118,2.671.89-2.212,8.074-5.958,10.118m-3.75,26.809a2.58,2.58,0,0,1-2.838-2.826c0-4.878,6.769-9.539,11.882-12.041-.907,6.811-3.208,14.6-9.043,14.867m31.23-15.9A6.513,6.513,0,0,0,54.4,54.182c0,2.84,1.707,5.111,3.971,5.111a1.458,1.458,0,0,0,1.595-1.471c0-1.484-1.958-1.841-1.811-4.048a2.77,2.77,0,0,1,2.833-2.43c2.723,0,4,2.639,4,5.362a6.976,6.976,0,0,1-6.834,7.126c-4.773,0-7.839-4.538-7.839-9.423,0-7.273,4.773-10.111,7.273-10.789.023,0,6.53,1.156,6.327-1.712-.094-1.262-1.97-1.747-3.325-1.8a9.309,9.309,0,0,0-3.031.484,3.722,3.722,0,0,1-1.678-2.09c4.657-3.524,7.951-6.928,7.951-10.791a3.726,3.726,0,0,0-3.978-3.861c-4.657,0-8.178,5.906-8.178,11.244a9.449,9.449,0,0,0,.234,2.611c-2.955,2.155-5.153,3.5-9.124,5.884a20.267,20.267,0,0,1,.438-3.441c1.361-1.478,3.23-3.692,3.23-5.4a1.342,1.342,0,0,0-1.367-1.478c-2.268,0-3.968,3.411-4.423,5.8-1.022,1.255-3.067,2.845-4.774,2.845a2.068,2.068,0,0,1-1.933-1.707c4.318-1.478,9.656-7.383,9.656-12.722,0-1.133-.455-3.635-3.861-3.635-5.111,0-9.422,7.613-9.422,13.512-1.822,0-2.5-1.928-2.5-3.406a22.58,22.58,0,0,1,.567-3.407.918.918,0,0,0-.912-1.021c-1.7,0-2.723,2.271-2.723,4.883a5.954,5.954,0,0,0,5.678,6.135,5.194,5.194,0,0,0,4.766,4.205,6.958,6.958,0,0,0,4.545-1.588c-.11.793-.221,1.478-.338,2.155-5,2.617-8.635,4.433-11.928,7.385C24.881,55.092,23.4,58.27,23.4,60.765a6.245,6.245,0,0,0,6.583,6.59c5.221,0,9.2-4.2,11.134-10a45.52,45.52,0,0,0,1.5-10.329,105.739,105.739,0,0,0,10.422-6.6A4.568,4.568,0,0,0,54.177,41.8a14.168,14.168,0,0,0-8.061,13.061c0,5.906,3.971,12.5,11.813,12.5A10.816,10.816,0,0,0,68.829,56.9c0-4.652-2.614-8.965-7.614-8.965m19.528,9.756c-.017.035-.08.082-.209.04-.1-.035-.122-.082-.122-.147a31.121,31.121,0,0,0,1.361-8.739c-.012-5.007-2.043-8.074-4.649-8.074a2.659,2.659,0,0,0-2.729,2.847c0,3.066,3.745,3.3,3.745,9.994a26.6,26.6,0,0,1-1.471,8.173C72.461,75.98,59.06,82.57,46.005,82.57a32.465,32.465,0,0,1-11.572-1.809.19.19,0,0,1-.059-.229c.028-.075.117-.134.169-.11a28.555,28.555,0,0,0,8.734,1.356c5,0,7.951-2.043,7.951-4.545a2.812,2.812,0,0,0-2.838-2.838c-3.067,0-3.3,3.861-9.885,3.861a27.059,27.059,0,0,1-8.289-1.479C16.129,72.461,9.423,59.177,9.428,46a37.9,37.9,0,0,1,1.834-11.579.18.18,0,0,1,.2-.033.152.152,0,0,1,.117.146,30.058,30.058,0,0,0-1.356,8.741c0,5,2.043,7.951,4.656,7.951A2.688,2.688,0,0,0,17.6,48.505c0-3.071-3.75-3.411-3.75-10a27.258,27.258,0,0,1,1.478-8.29C19.65,16.132,32.94,9.532,46,9.43a34.231,34.231,0,0,1,11.584,1.933.181.181,0,0,1,.035.2c-.049.11-.119.122-.152.115a25.348,25.348,0,0,0-8.746-1.449c-4.883-.005-7.951,2.04-7.951,4.656a2.721,2.721,0,0,0,2.838,2.723c3.067,0,3.3-3.745,9.885-3.745a27.049,27.049,0,0,1,8.284,1.473C75.98,19.65,82.441,33.051,82.564,46a35.562,35.562,0,0,1-1.821,11.691M46,6.933A39.066,39.066,0,1,0,85.067,46,39.063,39.063,0,0,0,46,6.933M46,87A41,41,0,1,1,87,46,40.983,40.983,0,0,1,46,87" transform="translate(-5 -5)" fill="#3b73b9"/>
    </g>
  </g>
</svg>
