<svg xmlns="http://www.w3.org/2000/svg" width="86" height="86" viewBox="0 0 86 86">
  <g id="software-development" transform="translate(-541 -221)">
    <rect id="Box" width="86" height="86" rx="12" transform="translate(541 221)" fill="#fff0f0"/>
    <g id="code-1" transform="translate(560 240)">
      <path id="Path_61" data-name="Path 61" d="M46,8V26.018C46,34.026,41.226,38.8,33.218,38.8H14.782C6.774,38.8,2,34.026,2,26.018v-18Z" transform="translate(0 7.2)" fill="#ffbebe"/>
      <path id="Path_62" data-name="Path 62" d="M12.049,24.35a1.681,1.681,0,0,1-.726-.176,11.039,11.039,0,0,1-4.2-3.718,3.888,3.888,0,0,1,0-4.334,10.8,10.8,0,0,1,4.2-3.7,1.659,1.659,0,0,1,2.222.748A1.64,1.64,0,0,1,12.8,15.4a7.573,7.573,0,0,0-2.926,2.6.636.636,0,0,0,0,.682,7.573,7.573,0,0,0,2.926,2.6,1.678,1.678,0,0,1,.748,2.222A1.764,1.764,0,0,1,12.049,24.35Z" transform="translate(5.353 12.299)" fill="#ff6262"/>
      <path id="Path_63" data-name="Path 63" d="M16.112,24.369a1.645,1.645,0,0,1-.726-3.124,7.573,7.573,0,0,0,2.926-2.6.636.636,0,0,0,0-.682,7.573,7.573,0,0,0-2.926-2.6A1.658,1.658,0,1,1,16.86,12.4a11.038,11.038,0,0,1,4.2,3.718,3.887,3.887,0,0,1,0,4.334,10.8,10.8,0,0,1-4.2,3.7A1.453,1.453,0,0,1,16.112,24.369Z" transform="translate(14.948 12.281)" fill="#ff6262"/>
      <path id="Path_64" data-name="Path 64" d="M46,14.782V15.2L2,15.222v-.44C2,6.774,6.774,2,14.782,2H33.218C41.226,2,46,6.774,46,14.782Z" transform="translate(0 0)" fill="#ff6262"/>
    </g>
  </g>
</svg>
