<svg xmlns="http://www.w3.org/2000/svg" width="152.25" height="61.178" viewBox="0 0 152.25 61.178">
  <g id="logo_telyMD" transform="translate(-5 -4.68)">
    <path id="Path_51" data-name="Path 51" d="M53.285,13H50.566V10.583a5.646,5.646,0,0,0-5.346-5.9,5.636,5.636,0,0,0-5.333,5.9V13H10.346a5.346,5.346,0,1,0,0,10.692H20.66V50.568a6.09,6.09,0,0,0,12.145,0V23.689h7.082v1.431a5.645,5.645,0,0,0,5.35,5.9,5.642,5.642,0,0,0,5.346-5.9V23.689h2.7a5.346,5.346,0,1,0,0-10.692Zm3.537,5.929H49.557l-1.492,3.8a.87.87,0,0,1-1.7-.178l-1.418-8.265L43.4,22.767a.792.792,0,0,1-.87.622h0a.8.8,0,0,1-.87-.6l-1.179-5.655L39.7,18.478a.918.918,0,0,1-.77.448H34.619a.89.89,0,1,1,0-1.779h3.789L40.1,14.293a.87.87,0,0,1,1.636.274l.713,3.45,1.627-9.035a.87.87,0,0,1,.87-.718h0a.87.87,0,0,1,.87.722l1.74,10.144.561-1.418a.892.892,0,0,1,.826-.565H56.83a.89.89,0,0,1,0,1.779Z" transform="translate(0)" fill="#f18357"/>
    <path id="Path_52" data-name="Path 52" d="M103.969,84.872a7.348,7.348,0,0,1-1.662,1.431,7.982,7.982,0,0,1-1.971.9,7.677,7.677,0,0,1-2.175.313,8.605,8.605,0,0,1-.87-.043,5.008,5.008,0,0,1-1.022-.2L95.121,86.9l-.57-.183.383-.461.77-.927,11.671-14.068a11.975,11.975,0,0,0-6.355-4,11.776,11.776,0,0,0-2.849-.348,12.11,12.11,0,0,0-4.641.9,11.393,11.393,0,0,0-6.351,6.381,13.485,13.485,0,0,0-.94,5.111,12.976,12.976,0,0,0,.94,4.994A11.958,11.958,0,0,0,89.74,88.2a11.671,11.671,0,0,0,3.784,2.545,12.149,12.149,0,0,0,7.473.566,11.488,11.488,0,0,0,2.61-.987,12.215,12.215,0,0,0,2.332-1.592,11.813,11.813,0,0,0,1.3-1.3L104.3,84.468A3.164,3.164,0,0,1,103.969,84.872ZM93.307,83.454l-.74.979-.344.487-.309-.531-.609-1.061a4.559,4.559,0,0,1-.435-1.048,10.073,10.073,0,0,1-.231-1.009,9.948,9.948,0,0,1-.135-1.044c-.022-.344-.022-.657-.022-.909a9.057,9.057,0,0,1,.587-3.336,7.787,7.787,0,0,1,1.636-2.61,7.234,7.234,0,0,1,2.471-1.683,7.83,7.83,0,0,1,3-.587,10.331,10.331,0,0,1,1.057.057,5.137,5.137,0,0,1,1.183.283l1.027.374.509.187-.326.435-.657.87Z" transform="translate(-45.9 -35.166)" fill="#f18357"/>
    <rect id="Rectangle_2" data-name="Rectangle 2" width="4.176" height="33.499" transform="translate(63.607 22.515)" fill="#f18357"/>
    <path id="Path_53" data-name="Path 53" d="M173.079,69.18v13a6.691,6.691,0,0,1-.465,2.449,7.182,7.182,0,0,1-1.275,2.092,6.572,6.572,0,0,1-1.9,1.522,5.3,5.3,0,0,1-2.466.6,6.686,6.686,0,0,1-2.358-.435,5.573,5.573,0,0,1-2.014-1.3,6.194,6.194,0,0,1-1.331-2.114,7.829,7.829,0,0,1-.479-2.827V69.18h-4.1v13A11.98,11.98,0,0,0,157.5,86.7a9.657,9.657,0,0,0,5.459,5.485,10.7,10.7,0,0,0,4.015.753,4.707,4.707,0,0,0,1.784-.365c.739-.3,1.466-.6,2.175-.909l1.8-.757.9-.378-.365.9-.731,1.805a8.492,8.492,0,0,1-1.1,1.923,7.76,7.76,0,0,1-1.583,1.553,7.512,7.512,0,0,1-1.957,1.027,6.66,6.66,0,0,1-2.249.383l-2.436-.03v4.172l2.175.035a11.371,11.371,0,0,0,4.585-.935,12.262,12.262,0,0,0,3.793-2.553,12.01,12.01,0,0,0,2.562-3.776,11.715,11.715,0,0,0,.948-4.62V69.18Z" transform="translate(-85.703 -36.443)" fill="#f18357"/>
    <path id="Path_54" data-name="Path 54" d="M244.466,48a3.323,3.323,0,0,0-2.962,1.77l-.022.039-.022.048-9.252,19.022-9.492-19.027v-.035l-.022-.039A3.315,3.315,0,0,0,219.715,48a3.35,3.35,0,0,0-2.375.944,3.3,3.3,0,0,0-1,2.436v24.7a3.376,3.376,0,1,0,6.751,0V64.564l5.92,11.862a3.289,3.289,0,0,0,3.075,1.949,3.376,3.376,0,0,0,2.88-1.618l.048-.078.043-.083,6.02-12.276V76.092a3.376,3.376,0,0,0,5.738,2.414,3.28,3.28,0,0,0,1.014-2.414v-24.7a3.293,3.293,0,0,0-1-2.432A3.341,3.341,0,0,0,244.466,48Z" transform="translate(-119.407 -24.476)" fill="#231f20"/>
    <path id="Path_55" data-name="Path 55" d="M320.667,57.452a14.594,14.594,0,0,0-8.208-8.291A16.656,16.656,0,0,0,306.2,48h-6.586a3.354,3.354,0,0,0-2.379.944,3.315,3.315,0,0,0-1,2.436v24.7a3.35,3.35,0,0,0,3.38,3.376h6.6a16.656,16.656,0,0,0,6.264-1.144,14.572,14.572,0,0,0,8.2-8.3,17.217,17.217,0,0,0,1.122-6.286A16.991,16.991,0,0,0,320.667,57.452Zm-6.647,11.2a8.5,8.5,0,0,1-3.167,3.31,8.835,8.835,0,0,1-4.659,1.2h-3.228V54.328H306.2a9.078,9.078,0,0,1,4.668,1.183,8.43,8.43,0,0,1,3.158,3.271,11.019,11.019,0,0,1,0,9.866Z" transform="translate(-164.545 -24.475)" fill="#231f20"/>
  </g>
</svg>
