<svg xmlns="http://www.w3.org/2000/svg" width="150.35" height="54.752" viewBox="0 0 150.35 54.752">
  <g id="logo_uline" transform="translate(153 46)">
    <rect id="rect995" width="130.204" height="36.586" transform="translate(-142.877 -36.478)" fill="#fff"/>
    <path id="path835" d="M-153-46H-2.65V8.752H-153Zm10.124,31.022c0,5.287.652,7.768,3.633,11.026C-136.361-.82-131.6-.118-129.019-.118a13.26,13.26,0,0,0,9.873-3.834c2.255-2.431,3.483-5.037,3.483-11.026v-21.5h-8.971v21.5c0,2.832,0,6.741-4.536,6.741-4.435,0-4.636-4.285-4.636-6.741v-21.5h-9.071ZM-89.4-.87V-8.838H-99.826V-36.478h-9.121V-.87Zm14.158-35.608h-9.071V-.87h9.071ZM-60.284-.87V-22.52L-46.778-.87h7.969V-36.478h-8.47v22.452L-61.036-36.478H-68.8V-.87Zm47.611,0V-8.838H-23.649v-6.139h10.675V-22.9H-23.649v-5.438h10.976v-8.119h-19.7V-.845h19.7Z" transform="translate(0)" fill="#036"/>
  </g>
</svg>
