<svg id="logo_unilever" xmlns="http://www.w3.org/2000/svg" xmlns:xlink="http://www.w3.org/1999/xlink" width="74" height="81.866" viewBox="0 0 74 81.866">
  <defs>
    <clipPath id="clip-path">
      <rect id="Rectangle_1" data-name="Rectangle 1" width="74" height="81.866"/>
    </clipPath>
  </defs>
  <g id="Group_2" data-name="Group 2">
    <g id="Group_1" data-name="Group 1" clip-path="url(#clip-path)">
      <path id="Path_1" data-name="Path 1" d="M9.531,101.929a13.332,13.332,0,0,1-.571-1.894,2.223,2.223,0,0,1,1.21-2.567c.764-.213,1.063.171,1.359,1.063a18.561,18.561,0,0,1,.3,5.688c-.167,3.482-1.909,7.686-6.239,7.6-3.738-.082-5.391-2.5-5.563-6.2a16.965,16.965,0,0,1,.764-5.943c.383-1.318.724-1.787,1.91-2.04.933-.171.849.8.638,1.955a22.617,22.617,0,0,0-.509,6.664c.166,3.057,1.571,4.247,3.1,4.247,2.293.044,3.311-1.866,3.738-4.629A8.06,8.06,0,0,0,9.531,101.929Zm48.888,3.015c.893,0,1.149,1.056.936,1.7a2.723,2.723,0,0,1-2.164,1.572C56.935,107.574,56.807,104.944,58.42,104.944Zm-16.6,1.439c0-.719-.385-1.314-.848-1.314-.387,0-1.275.423-1.275,1.782a2.635,2.635,0,0,0,.552,1.787A2.2,2.2,0,0,0,41.822,106.384Zm-13.207-8.66A1.246,1.246,0,0,0,27.3,96.579a1.686,1.686,0,0,0-1.484,1.908,1.245,1.245,0,0,0,1.275,1.276A1.8,1.8,0,0,0,28.615,97.724Zm6.9,2.494c-.074-1.187-.361-1.723-1-1.679-.845.051-1.236,2.711-1.064,5.508.11,1.824.382,2.106.635,2.088C34.56,106.106,35.682,102.846,35.52,100.217Zm28.165,4.47c-.526,2.183-2.122,5.394-4.5,5.394-.551,0-1.528-.214-1.528-.766,0-.6,3.739-.677,3.739-3.524a2.646,2.646,0,0,0-2.421-2.548c-1.91,0-3.774,2.082-3.774,4.969,0,2.588,1.608,3.438,3.221,3.438,2.8,0,4.5-2.294,5.393-4.2.427,1.274.677,4.2,1.743,4.2.423,0,.722-.213,1.232-1.357,1.271-2.847,2.5-6.116,4.2-6.116.635,0,.255,1.149,1.782,1.149A1.24,1.24,0,0,0,74,104.049c0-.978-.89-1.739-2.248-1.739-3.992,0-4.838,5.987-5.476,5.987-1.062,0-.722-4.8-1.488-4.8C64.11,103.5,63.776,104.308,63.685,104.687ZM29.72,109.781a2.977,2.977,0,0,0,2.592-1.586,15.833,15.833,0,0,1-.893-4.109c-.253-4.116,1.333-7.988,3.068-8.1,1.273-.077,2.291,1.128,2.408,3.079.313,5.129-1.4,7.27-2.25,9.117a3.037,3.037,0,0,0,2.506,1.935,1.645,1.645,0,0,0,1.064-.385,4.21,4.21,0,0,1-.172-1.231c0-2.972,1.911-5.478,3.568-5.478,1.316,0,2.08,1.741,2.08,2.889,0,1.357-1.148,2.463-2.845,3.524a2.035,2.035,0,0,0,1.317.51c2.422,0,3.689-2.931,4.628-5.607.169-.51.469-1.231,1.062-1.231,1.019,0,1.445,6.709,3.139,6.709.724,0,1.317-1.487,1.317-2.631,0-.85-.3-.936-.3-2.167,0-1.357.722-2.5,1.7-2.5.594,0,.808.592.808,1.312,0,2.718-1.956,7.772-4.839,7.772-2.169,0-2-3.737-2.763-3.737-.853,0-2.042,3.779-6.241,3.779a2.7,2.7,0,0,1-2-1.02,4.885,4.885,0,0,1-2.846.978c-1.569,0-2.25-1.614-2.885-1.614-.766,0-1.613,1.656-4.163,1.656-2.038,0-2.378-2.715-3.1-2.715-.638,0-1.615,2.715-2.675,2.715-1.786,0-2.164-4.712-3.738-4.712-1.231,0-5.121,4.785-6.177,4.676-.424-.044-.6-.361-.559-.786a29.964,29.964,0,0,1,.771-2.9c.343-1.291.658-2.706.834-3.158a1.128,1.128,0,0,1,1.024-.745c.191.018.248.374.307.667.215,1.05.514,2.12.852,2.12.6,0,2.566-3.78,3.712-3.78,1.4,0,1.571,5.946,3.481,5.946.638,0,1.107-.763,1.53-1.7.043-1.573.468-3.819,1.741-3.819.892,0,1.317,1.994.678,3.737,0,2.079,1.356,2.589,2.25,2.589" transform="translate(0 -29.953)" fill="#1766a6"/>
    </g>
  </g>
  <path id="Path_2" data-name="Path 2" d="M85.493,18.13a.977.977,0,0,1-1.015-.495c-.2-.406-.135-1.06-.518-1.353a3.926,3.926,0,0,0,1.1.112c1.015,0,1.985-.7,2.73-.7a.583.583,0,0,1,.649.63C88.443,17.32,86.441,18.13,85.493,18.13Zm.5,2.546c2.341,0,4.485-1.87,4.485-3.514a1.373,1.373,0,0,0-1.286-1.51.991.991,0,0,1,.225.721c0,1.24-1.888,2.614-3.941,2.614a.862.862,0,0,0-.97.788C84.5,20.406,85.11,20.676,85.988,20.676Zm-.18.947c.294,2.14,3.536,5.024,4.415,4.956.587-.05.812-2.794.812-4.956,0-1.239.068-2.208-.586-2.434-1.038,2.1-3.761,2.524-4.641,2.434" transform="translate(-26.2 -4.884)" fill="#1766a6"/>
  <path id="Path_3" data-name="Path 3" d="M12.075,42.589c.765,0,.607-4.687,1.846-4.687.294,0,.384.293.384.654,0,1.059-.519,2.614-.519,3.469,0,.429.113.564.316.564.541,0,1.487-5.16,2.411-5.16.293,0,.428.293.428.586,0,1.081-1.373,4.19-1.373,5.069,0,.136.044.248.158.248.563,0,1.69-2.433,2.049-3.649.2-.632.473-.97.722-.97.225,0,.429.248.429.767,0,1.216-1.128,4.077-2.119,5.993-.765,1.487-1.959,3.625-1.959,4.82a2.39,2.39,0,0,0,.99,2.005c-1.442-.09-2.027-.225-2.567-1.351-2.411,4.8,4.438,4.326,2.095,8.582-.429-.764-3.807-1.553-3.807-6.014,0-3.853,3.379-6.106,3.379-7.7a1.028,1.028,0,0,0-.4-.833c-.744-.632-.767-1.149-1.353-1.149-.427,0-.947.991-.406,1.869.181.293.338.473.338.744,0,.63-.992,2.319-1.69,2.319s-1.238-1.732-1.238-4.527c0-2.479.562-4.979,1.261-4.979.2,0,.27.135.27.316,0,.293-.089.878-.089,1.869,0,1.059.248,1.15.451,1.15" transform="translate(-3.178 -11.68)" fill="#1766a6"/>
  <path id="Path_4" data-name="Path 4" d="M20.73,49.558c.947,0,1.735-.7,1.735-2.252v-2.3a3.941,3.941,0,0,1,.654-2.569,4.031,4.031,0,0,0-.068.9c0,1.938,1.081,3.268,1.081,5.137,0,.7-.2,1.081-.742,1.081-.519,0-.473-.473-.587-.473-.089,0-.225.292-.225.608a1.218,1.218,0,0,0,1.284,1.216,1.545,1.545,0,0,0,1.464-1.577c0-2.026-1.577-4.28-1.577-6.443a5.064,5.064,0,0,1,.451-2.073c0,4.484,3.807,7.75,3.807,9.62a.752.752,0,0,1-.788.767.736.736,0,0,1-.766-.722c0-.158-.023-.2-.09-.2a1.154,1.154,0,0,0-.54,1.037,1.686,1.686,0,0,0,1.734,1.645,2,2,0,0,0,1.982-2.051c0-2.364-4.618-5.947-4.618-9.776a5.29,5.29,0,0,1,.586-2.523,7.746,7.746,0,0,0-3.9,6.691c0,1.938-.067,2.905-1.059,2.905-.519,0-.654-.472-.834-.472-.135,0-.2.405-.2.517a1.236,1.236,0,0,0,1.218,1.306" transform="translate(-6.089 -12.048)" fill="#1766a6"/>
  <path id="Path_5" data-name="Path 5" d="M70.836,17.262a10.128,10.128,0,0,0,3.2-.7,1.222,1.222,0,0,1,.585-.156c.79,0,.587.9,1.308.9.562,0,1.285-.473,1.714-.473.671,0,1.641,2.118,1.641,3.11,0,1.149-1.732,1.848-3.783,1.848a4.811,4.811,0,0,1-4.8-4.3A.24.24,0,0,1,70.836,17.262Zm4.912,2.861c.992,0,1.736-.451,1.736-.722,0-.089-.135-.157-.429-.157a12.323,12.323,0,0,1-1.984-.2c-.948-.158-1.669-.518-1.939-.518-.09,0-.136.045-.136.112,0,.587,1.083,1.487,2.752,1.487" transform="translate(-22.062 -5.119)" fill="#1766a6"/>
  <path id="Path_6" data-name="Path 6" d="M21.092,66.512a3.279,3.279,0,0,0-1.938,3.2,6.281,6.281,0,0,0,6.263,5.61c3.288,0,4.1-2.276,4.1-3.809,0-3.4-2.094-5.79-4.82-5.79A2.718,2.718,0,0,0,21.88,68.4a3.73,3.73,0,0,0,3.807,3.718,1.9,1.9,0,0,0,2-1.936,2.492,2.492,0,0,0-2.276-2.411.66.66,0,0,0-.7.7c0,.539.742,1.081,1.667,1.081a1.206,1.206,0,0,0,.5-.091.554.554,0,0,1,.067.271c0,.519-.5.834-1.262.834a2.205,2.205,0,0,1-2.253-2.21c0-.809.7-1.394,1.712-1.394a3.35,3.35,0,0,1,3.2,3.56c0,1.6-.877,2.523-2.68,2.523-3.6,0-5.361-3.246-4.573-6.536" transform="translate(-5.977 -20.509)" fill="#1766a6"/>
  <path id="Path_7" data-name="Path 7" d="M50.14,82.247a10.613,10.613,0,0,0,1.363-.09c.337,0,.36.2.36.338,0,.5-1.1,1.1-3.065,1.1a1.989,1.989,0,0,1-2.05-1.284,8.88,8.88,0,0,1-4.528,1.375c-4.618,0-5.789-2.007-7.232-2.658-1.1-.5-2.794.473-5.16-2.163a5.652,5.652,0,0,0,1.082.09c2.071,0,3.176-1.012,3.176-2.636a5.829,5.829,0,0,0-.045-.629,4.472,4.472,0,0,1,2.413,3.242c.044.226.967.428,1.553.428A1.833,1.833,0,0,0,40.013,77.7c2.7-.225,4.529-1.824,4.913-3.854a5.343,5.343,0,0,1,2.342,1.646,4.071,4.071,0,0,1,1.351-.2,8.664,8.664,0,0,1,2.5.429c.045-.293.09-.654.541-.654.676,0,.5.744.721,1.17.113.226.677.36.677.812a.578.578,0,0,1-.588.587,1,1,0,0,1-.271-.045c-.45.158-.473,3.4-2.365,3.4A3.8,3.8,0,0,1,46.59,78.4a.965.965,0,0,0-.811-.7c-.36,0-.563.068-.99.541a7.833,7.833,0,0,1-5.745,2.477c-.766,0-1.375-.069-1.533-.069-.091,0-.091.023-.091.045,0,.158.766.767,2.433.767,3.965,0,4.935-2.231,5.565-2.231a.522.522,0,0,1,.517.361A4.426,4.426,0,0,0,50.14,82.247Zm-1.747-4.5a.9.9,0,1,0,.9-.9.9.9,0,0,0-.9.9" transform="translate(-9.308 -23.043)" fill="#1766a6"/>
  <path id="Path_8" data-name="Path 8" d="M79.144,62.739c-.316,0-.654.248-.654.858a1.426,1.426,0,0,0,.811,1.237,1.384,1.384,0,0,0,.652.182c.654,0,1.174-.182,1.174-.723C81.126,63.6,80.111,62.739,79.144,62.739Zm-2.431,1.4c-.473,0-3.09,3.492-4.776,3.492-.405,0-.744-.766-.744-1.349,0-.316.2-.541.925-.7,3.874-.879,3.017-3.786,6.326-3.786A3.781,3.781,0,0,1,82.3,65.825c0,2.974-4.233,6.668-4.864,6.668-.519,0-1.082-.743-1.082-1.238,0-.158.068-.36.519-.541,2.16-.857,3.4-2.839,3.4-3.854a.4.4,0,0,0-.405-.449c-.382,0-2.023,3.738-3.85,3.738-1.264,0-2.549-1.146-2.549-1.688,0-.9,3.654-2.568,3.654-3.831,0-.474-.226-.5-.406-.5" transform="translate(-22.216 -19.282)" fill="#1766a6"/>
  <path id="Path_9" data-name="Path 9" d="M12.884,20.214a2.7,2.7,0,0,1-1.464.495,1.693,1.693,0,0,1-1.734-1.734,1.9,1.9,0,0,1,1.194-1.78,2.238,2.238,0,0,0-.022.383A2.622,2.622,0,0,0,12.884,20.214ZM17.7,24.54a4.279,4.279,0,0,0-1.014,2.59,2.024,2.024,0,0,0,1.893,2.23,1.7,1.7,0,0,0,1.622-1.914A3.328,3.328,0,0,0,17.7,24.54Zm-7.479.9a.441.441,0,0,0,.359.676c.18,0,.293-.045.383-.045.54,0,1.149.382,2.027.382a4.3,4.3,0,0,0,1.892-.54,4.7,4.7,0,0,0,2.254-3.155c0-.429-.344-.372-.632-.766s-.177-.74-.36-.924c-.1-.105-.427-.112-.834-.158-.136-.014-.316-.023-.5-.023a4.569,4.569,0,0,0-2.613.722C10.253,22.858,10.54,24.922,10.226,25.44Zm5.294-2.794c.156.213.587.474.587.632,0,.314-.182.721-.541.721-.789,0-1.419-1.194-1.419-1.871,0-.427.248-.472.585-.472a.543.543,0,0,1,.338.09C15.271,21.859,15.271,22.309,15.52,22.646ZM13.446,25.4a1.86,1.86,0,0,1-1.554-1.758c0-.45.338-1.014.585-1.014.09,0,.136.068.158.226A2.562,2.562,0,0,0,14.168,24.9c.067.045.113.067.113.112C14.281,25.17,13.852,25.4,13.446,25.4Zm1.916-5.678a4.439,4.439,0,0,0,.2-1.307c0-1.081-.5-2.726-2.028-2.726a1.5,1.5,0,0,0-1.51,1.532C12.026,19,13.807,19.718,15.362,19.718ZM9.527,28.729c0,1.712.519,2.523,1.442,2.523a5.046,5.046,0,0,0,2.838-1.51,9.986,9.986,0,0,1-2.162.338A2.368,2.368,0,0,1,9.527,28.729Zm.789-2.005a1.75,1.75,0,0,0-.022.338c0,1.059.562,1.645,1.306,1.645a2.422,2.422,0,0,0,1.8-1.082,4.742,4.742,0,0,1-.81.067A2.7,2.7,0,0,1,10.316,26.724Zm5.519-.315a2.142,2.142,0,0,0-1.6,1.892,1.327,1.327,0,0,0,1.419,1.33,1.471,1.471,0,0,0,.879-.226,2.625,2.625,0,0,1-.856-1.959A3.011,3.011,0,0,1,15.835,26.409Zm.81-6.173a.9.9,0,1,0,.9-.9A.9.9,0,0,0,16.646,20.236Zm1.171,2.027a.9.9,0,1,0,.9-.9.905.905,0,0,0-.9.9" transform="translate(-2.973 -4.895)" fill="#1766a6"/>
  <path id="Path_10" data-name="Path 10" d="M68.733,36.268a.866.866,0,0,1,1.731,0,.866.866,0,1,1-1.731,0Zm-7.91-6.939a.9.9,0,1,0,.9-.9A.9.9,0,0,0,60.823,29.329Zm-.765,3.176a1.284,1.284,0,1,0,1.284-1.284A1.3,1.3,0,0,0,60.058,32.505ZM62.9,31.063a1.373,1.373,0,1,0,1.37-1.374A1.364,1.364,0,0,0,62.9,31.063Zm.114-2.929a.854.854,0,1,0,.852-.855A.856.856,0,0,0,63.011,28.135Zm4.076-2.162a.857.857,0,1,0,.857-.857A.856.856,0,0,0,67.087,25.973ZM65.4,28.744A1.443,1.443,0,1,0,66.838,27.3,1.452,1.452,0,0,0,65.4,28.744Zm-2.318,5.271a.9.9,0,1,0,.9-.9A.9.9,0,0,0,63.077,34.015Zm2.95-1.8a.9.9,0,1,0,.9-.9A.9.9,0,0,0,66.027,32.212Zm-.834,3.177a1.556,1.556,0,1,0,1.555-1.555A1.558,1.558,0,0,0,65.194,35.389Zm3.246-1.916A1.058,1.058,0,1,0,69.5,32.415,1.058,1.058,0,0,0,68.439,33.473Zm-.067-2.838a.945.945,0,1,0,.942-.945.952.952,0,0,0-.942.945" transform="translate(-18.741 -7.837)" fill="#1766a6"/>
  <path id="Path_11" data-name="Path 11" d="M71.791,74.992a6.636,6.636,0,0,1-4.234,1.463,5.561,5.561,0,0,1-1.939-.383c-.226,0-.473.225-.722.519a5.083,5.083,0,0,0-1.235,3.086,1.846,1.846,0,0,0,2,1.8c4.217,0,7.369-2.635,7.369-4.774C73.032,75.488,72.311,74.992,71.791,74.992Zm-1.172-.248a.824.824,0,0,0,.225-.654v-.518c0-.654-.987-1.035-2.34-1.035-1.646,0-2.525.742-2.525,1.058v1.036c0,.429.993.857,2.21.857A3.76,3.76,0,0,0,70.62,74.745Zm-.182,2.23c.114,0,.248.067.248.473a1.974,1.974,0,0,1-1.032,1.665,4.327,4.327,0,0,1-2.457.72,5.3,5.3,0,0,0,.316-1.641,4.348,4.348,0,0,0-.045-.519h.293a5.08,5.08,0,0,0,2.678-.7" transform="translate(-19.866 -22.635)" fill="#1766a6"/>
  <path id="Path_12" data-name="Path 12" d="M60.341,38.97c.248,1.914,2.819.945,2.819,3.265,0,.338-.09.835-.09,1.262,0,.5.044.924.424.924s.473-.27.473-.631-.091-.811-.091-1.059a.872.872,0,0,1,.9-.969c.856,0,1.51.879,2.8.879-.294,1.442-3.27,1.059-3.27,2.636,0,.789.789.968,1.308.968.473,0,.632-.067.632-.472,0-.226-.045-.474-.045-.632a.178.178,0,0,1,.181-.181c.5,0,2.926,1.848,2.926,2.412,0,.517-2.565,1.035-3.309,1.035a.24.24,0,0,1-.271-.248c0-.158.383-.631.383-.9,0-.2-.338-.338-1.24-.338-.429,0-.744.045-.744.384,0,.607.992,1.351.992,1.913,0,.451-.27.722-.992.722-.609,0-1.529-.474-1.529-1.262,0-.631.65-1.26.65-1.644a.313.313,0,0,0-.356-.293c-.835,0-1.06,2.207-4.013,2.455a2.262,2.262,0,0,0,.878-1.868c0-.473-.111-.857-.111-1.375,0-.676.314-1.015.765-1.015.833,0,1.239,1.171,1.782,1.171a.651.651,0,0,0,.609-.675c0-1.712-3.29-1.465-3.29-3.875A5.6,5.6,0,0,1,60.341,38.97Zm10.746,6.6c0,.562.182,1.216.745,1.216.473,0,.879-.72.879-1.509,0-.9-.158-1.6-.158-1.961,0-.157.068-.224.158-.224.338.023.654.946,1.015.946.406,0,1.011-.744,1.258-.744.068,0,.09.091.09.113,0,.338-.519,1.083-.519,1.375,0,.248,1.308.292,1.308.518,0,.338-1.371.338-2.024.632-.631.27-1.016.607-1.016,1.059s.451.54,1.083.54a8.955,8.955,0,0,0,2.9-.81.105.105,0,0,1,.112.112c0,.226-.766.969-.766,1.307,0,.382,1.4.832,1.375,1.058-.022.067-.113.089-.27.089-.249,0-.632-.067-.925-.067a.52.52,0,0,0-.407.112c-.156.181.045,1.375-.268,1.375-.294,0-1.06-2.658-2.791-2.658-.248,0-.429.2-.429.541a3.392,3.392,0,0,0,1.714,2.433c.378.248,1.01.5,1.01.632,0,.269-1.439.022-1.439.472,0,.406.18,1.015.18,1.375,0,.113-.023.247-.158.247-.27,0-.925-1.238-1.24-1.238-.27,0-.856.743-1.1.743a.125.125,0,0,1-.112-.134c0-.519.834-1.69.834-2.839,0-.541-.068-1.712-.722-1.712-.541,0-1.15.856-1.421,1.712-.157.5-.045,2.411-.406,2.411-.338,0-.248-1.284-.7-1.284-.332,0-1.054.607-1.3.607-.045,0-.091-.023-.091-.067,0-.27.654-1.149.654-1.329,0-.338-1.488-.382-1.488-.653,0-.158.586-.27,1.127-.361,1.146-.2,2.836-1.036,2.836-2.207,0-1.306-1.262-1.871-2.092-2.411-.429-.27-.9-.495-.9-.675s.541-.181.766-.181c.338,0,.672-.023.672-.292,0-.2-.045-.608-.045-.924,0-.226.022-.406.114-.406.338,0,.811,1.1,1.037,1.1.36,0,.856-.9,1.195-.9.111,0,.158.068.158.27,0,.834-.428,1.78-.428,2.592" transform="translate(-18.372 -12.161)" fill="#1766a6"/>
  <path id="Path_13" data-name="Path 13" d="M58.82,56.868c1.037.136,1.286.5,1.286.789,0,.5-.451.653-.881.653-.314,0-.676-.067-1.059-.067a1.706,1.706,0,0,0-1.4.586.77.77,0,0,1,.721.7c0,1.306-3.627.224-3.627,3.582,0,1.779,1.848,3.718,4.64,3.718,1.444,0,2.368-.473,2.368-1.015,0-.427-.766-.136-.766-.5,0-.158.27-.451.27-.7,0-.109-.09-.313-.27-.313a9.025,9.025,0,0,1-2.728.651c-1.217,0-2.411-.7-2.411-1.644,0-.2.091-.316.226-.316s.315.091.473.091c.136,0,.158-.091.158-.338s0-.947.427-.947,1.24,1.577,4.351,1.577c1.033,0,3.039-.2,3.784-.879a5.857,5.857,0,0,1-6.016,5.745A6.357,6.357,0,0,1,51.9,61.756a6.632,6.632,0,0,1,6.669-6.577c.99,0,1.826.337,1.826.766C60.4,56.532,58.932,56.17,58.82,56.868Zm6.917,1.2a1.338,1.338,0,0,1,.226.72c0,.632-.429,1.217-.429,1.871A1.344,1.344,0,0,0,66.951,62a1.558,1.558,0,0,0,1.555-1.621C68.506,59.189,67.424,58.176,65.737,58.064ZM58.278,59.5a.908.908,0,0,1,.293.676c0,.338-.158.7-.158,1.082a.991.991,0,0,0,.991,1.013,1.05,1.05,0,0,0,1.062-1.08A1.979,1.979,0,0,0,58.278,59.5Zm2.995-3.831a4.166,4.166,0,0,1,3.652,3.9,2.039,2.039,0,0,1-1.984,2.206,1.907,1.907,0,0,1-1.98-2.049c0-.946.739-1.937.739-2.907A1.745,1.745,0,0,0,61.273,55.674Zm1.172,3a.54.54,0,0,0,.541.563.62.62,0,0,0,.586-.676c0-.473-.429-1.126-.834-1.126-.181,0-.113.27-.158.563-.023.224-.136.495-.136.676" transform="translate(-16.196 -17.219)" fill="#1766a6"/>
  <path id="Path_14" data-name="Path 14" d="M29.39,23.737c.766,0,1.644-4.146,1.644-4.845,0-.18-.067-.316-.224-.316-.7,0-1.667,3.943-1.667,4.823C29.141,23.557,29.186,23.737,29.39,23.737Zm5.519,1.239c.562,0,1.193-2.164,1.193-3.515,0-.293-.045-.607-.181-.607-.473,0-1.262,2.23-1.262,3.447C34.66,24.773,34.774,24.976,34.909,24.976Zm-3.674-2.005c.248,0,.563-.272,1.151-.923a5.89,5.89,0,0,0,.044-.9c0-.45-.18-.946-.45-.946-.677,0-1.014,1.8-1.014,2.276C30.966,22.745,31.1,22.971,31.235,22.971Zm3.088-.923c0-.384-.091-.474-.18-.474-.226,0-.473.271-.833.879.045.811.18,1.172.405,1.172C33.962,23.625,34.322,22.835,34.322,22.048Zm1.735-2.659c1.487,0,2.162,1.284,2.162,2.726,0,.63-.179,1.555-.472,1.555s-.248-.519-.293-.992c-.045-.608-.158-.743-.361-.743-.383,0-.63.9-.63,1.735,0,.517.09,1.1.495,1.1a.821.821,0,0,0,.564-.248,2.016,2.016,0,0,1-1.938,1.938c-1.983,0-2.726-2.321-2.951-3.673-1.194,1.262-2.3,2.186-4.281,2.186a2.536,2.536,0,0,1-2.68-2.636c0-.384.135-1.375.609-1.375.563,0,.067,1.846,1.171,1.846.271,0,.765-.226,1.037-.968a4.179,4.179,0,0,0,.248-1.33c0-.609-.135-.991-.585-.991a1.766,1.766,0,0,0-1.015.45,3.394,3.394,0,0,1,3.288-2.455c1.782,0,2.727,1.577,2.727,3.334a4.375,4.375,0,0,1-.068.766c.766-1.262,1.827-2.23,2.975-2.23" transform="translate(-8.011 -5.467)" fill="#1766a6"/>
  <path id="Path_15" data-name="Path 15" d="M31.508,29.045c-.969,0-1.013,1.174-1.013,3.537-.722-1.554-1.915-3.222-3.312-3.222-.946,0-1.306.632-1.306,1.734a4.167,4.167,0,0,0,.067.766.854.854,0,0,1,.923-.54,4.11,4.11,0,0,1,2.907,1.758,14.978,14.978,0,0,0-2.455-.316,2.831,2.831,0,0,0-1.194.2,3,3,0,0,0-1.532,2.726,4.508,4.508,0,0,0,.068.743A4.851,4.851,0,0,1,28.9,33.889a4.268,4.268,0,0,1,.631.045,3.672,3.672,0,0,0-.9,2.478c-.021.36-.158.384-.406.384,0,.742.587,1.847.587,2.41a.478.478,0,0,1-.225.429c0,.991.99,1.712.99,2.342a.526.526,0,0,1-.113.361c.069.406,1.159,1.088,1.3,1.43.173.416.368.486.481.486.383,0,.99-.451.99-.857a.537.537,0,0,0-.2-.36,3.32,3.32,0,0,1-.834-1.441.422.422,0,0,1-.433-.332c-.123-.466-.129-1.335-.31-1.854-.293-.067-.429-.18-.429-.788,0-.293.181-1.443.181-1.849a.32.32,0,0,1-.315-.36c0-.72.722-1.284.923-2.207a3.314,3.314,0,0,1,1.6,2.771,5.914,5.914,0,0,1-.158,1.284c.947-.474,2.366-1.172,2.366-2.591,0-.834-.383-1.758-2.929-2.118A7.965,7.965,0,0,1,34.3,33.1c1.443,0,2.276.45,2.455,1.463a2.809,2.809,0,0,0,.519-1.441,1.9,1.9,0,0,0-2.1-1.824,7.189,7.189,0,0,0-3.9,1.6c.588-1.216.991-1.937,1.713-1.937a1.732,1.732,0,0,1,.338.045c-.27-.991-1.284-1.961-1.825-1.961" transform="translate(-7.674 -9.063)" fill="#1766a6"/>
  <path id="Path_16" data-name="Path 16" d="M87.96,52.657c1.128,0,2.029,1.464,2.029,3.177A7.081,7.081,0,0,1,87.6,60.992c-.023-3.041-3.744-2.072-3.744-4.279a1.5,1.5,0,0,1,1.489-1.577,2.283,2.283,0,0,1,1.691.61,2,2,0,0,1-.609-1.443,1.531,1.531,0,0,1,1.529-1.646" transform="translate(-26.169 -16.432)" fill="#1766a6"/>
  <path id="Path_17" data-name="Path 17" d="M60.314,19.851a2.4,2.4,0,0,0,1.735.81c.249,0,.543-.067.7-.067.2,0,.337.089.337.247a1.418,1.418,0,0,1-.5.88,2.265,2.265,0,0,0,.879.158,2.651,2.651,0,0,0,2.745-2.838,3.005,3.005,0,0,1,.429,1.442,3.231,3.231,0,0,1-3.468,3.4,4.864,4.864,0,0,1-1.76-.361c-.427,0-.4.857-.7.834-.519-.09-.991-1.239-.991-2.455A3.592,3.592,0,0,1,60.314,19.851Zm3.4-1.645a1.682,1.682,0,0,0-1.167-.45,1.821,1.821,0,0,0-1.8,1.329,2.115,2.115,0,0,1-.158-.766,2.177,2.177,0,0,1,2.323-2.208,3.956,3.956,0,0,1,2.2.766c.225,0,.451-.226.632-.226.248,0,.248.383.248.654a3.693,3.693,0,0,1-1.421,3.019,2.3,2.3,0,0,0-1.123-1.081.356.356,0,0,1-.225-.338.907.907,0,0,1,.491-.7" transform="translate(-18.638 -5.027)" fill="#1766a6"/>
  <path id="Path_18" data-name="Path 18" d="M29.072,8.277c0,.788,2.816,4.641,3.357,4.641.451,0,.788-.788.788-1.465a.922.922,0,0,0-.134-.495c-.406-.563-3.267-2.816-3.9-2.816A.126.126,0,0,0,29.072,8.277ZM12.513,5.957a4.3,4.3,0,0,1-2.319,1.96c-.225,0-.294-.27-.294-.517a2,2,0,0,1,.451-1.285,2.516,2.516,0,0,1,1.486-.4C12.153,5.711,12.513,5.777,12.513,5.957Zm20.57,1.307c0-1.353-3.655-3.808-3.7-4.866a.4.4,0,0,1,.131-.279c.626-.66,3.226-1.142,3.226-1.7,0-.292-.541-.292-.812-.292-2.095,0-5.159.766-5.159,1.509,0,.767,2.748,2.637,2.748,3.561,0,.248-.158.338-.406.338-.765,0-2.433-.925-3.221-.925-.36,0-.5.248-.5.61,0,1.081,1.284,3.131,1.284,3.738,0,.068-.023.158-.113.158-.406,0-2.319-2.252-3-2.252-.247,0-.27.337-.27.833v.766c0,.518-.023.834-.269.834-.588,0-.857-1.644-1.42-1.644-.586,0-.7,2.928-1.261,2.928-.654,0-.091-3.222-.722-3.222-.7,0-1.487,2.141-1.983,2.141-.18,0-.224-.181-.224-.338,0-.653.382-1.712.382-2.342,0-.316-.09-.5-.359-.5-.7,0-2.231,1.126-2.816,1.126-.09,0-.2-.045-.2-.136,0-.539,2.455-2.252,2.455-3.018,0-.744-3.381-.248-3.381-1.1,0-.72,2.413-1.464,2.413-2.208,0-.654-2.862-.945-3.965-.945C10.62.033,9.9.189,9.9.572c0,.586,3.019.767,3.019,1.284,0,.5-3.132,1.825-3.132,2.591,0,.676,4.415.045,4.415.744,0,.765-3.851,4.076-3.851,5.18,0,.248.18.361.427.361,1.172,0,4.212-2.23,5.046-2.23.293,0,.316.36.316.676,0,.586-.2,1.487-.2,2.141,0,.517.135.878.585.878.835,0,1.6-1.419,2.164-1.419.72,0,.292,4.168,1.374,4.168.923,0,1.306-4.505,1.892-4.505s1.06,1.306,1.6,1.306c.675,0,.36-2.275,1.081-2.275.788,0,3.041,2.7,4.055,2.7.315,0,.427-.248.427-.564,0-1.194-1.666-3.9-1.666-4.752,0-.225.067-.293.314-.293.879,0,3.448,1.216,4.664,1.216C32.837,7.782,33.084,7.557,33.084,7.264ZM30.74,2.8c0,.405,1.419,1.284,2.073,1.284.382,0,.5-.519.5-1.059,0-.676-.292-.7-.879-.7C31.687,2.33,30.74,2.533,30.74,2.8ZM25.445.5c0-.136-.676-.271-1.6-.271-1.465,0-1.262,1.218-2.388,1.218-1.172,0-.88-1.263-2.367-1.263-.9,0-1.734.158-1.734.36,0,.271,1.058.158,1.058.9,0,.788-2.276,1.013-2.276,1.487,0,.158.18.225.405.225.5,0,1.284-.225,1.848-.225.316,0,.609.067.609.36,0,.563-1.218,1.577-1.218,2.028,0,.136.112.181.225.181.451,0,1.218-1.15,1.938-1.15,1.194,0,.407,2.545,1.059,2.545.676,0,.383-2.5,1.352-2.5.79,0,1.375,1.735,1.915,1.735a.255.255,0,0,0,.248-.27c0-.472-.676-1.442-.676-2.072,0-.383.27-.564.631-.564.517,0,1.216.316,1.6.316.135,0,.27-.045.27-.2,0-.541-2-1.126-2-1.824s1.1-.7,1.1-1.015" transform="translate(-3.054 -0.01)" fill="#1766a6"/>
  <path id="Path_19" data-name="Path 19" d="M86.592,4.176c0,2-1.461,3.536-4.1,3.964.294.022.564.022.835.022,3.084,0,4.212-1.4,4.212-2.567A1.432,1.432,0,0,0,86.592,4.176ZM82.786,6.451c0-1.6-3.827-2.005-3.827-2.365,0-.292,2.137-.789,3.241-.812-1.69-2.162-4.1-1.937-4.1-2.32,0-.226,1.8-.677,3.468-.677,1.4,0,2.7.316,2.7,1.375,0,.587-.473,1.2-.473,2.1a.833.833,0,0,0,.9.924c.7,0,.856-.743.856-1.533,0-.652-.112-1.148-.112-1.464A1.5,1.5,0,0,1,87.02.1c.766,0,.947.336,2.075.336a1.72,1.72,0,0,0-.834,1.33c0,.947.61,1.6.61,3.538,0,3.558-3.334,4.82-7.413,4.82a23.369,23.369,0,0,1-3.491-.27c-.18-.023-.225-.067-.225-.18,0-.293,1.6-.451,1.6-1.892a11.2,11.2,0,0,0-.181-1.306.178.178,0,0,1,.181-.181c.338,0,1.015,1.306,2.273,1.306A1.073,1.073,0,0,0,82.786,6.451Zm3.671-4.978A.564.564,0,1,0,87.02.908a.557.557,0,0,0-.563.564" transform="translate(-24.259 -0.031)" fill="#1766a6"/>
  <path id="Path_20" data-name="Path 20" d="M83.34,30.176c0-.473-1.2-.517-1.308-1.847-.023-.2-.091-.562-.339-.562-.405,0-.09,1.239-.541,1.239-1.036,0-1.374-2.028-1.757-2.028-.091,0-.2.067-.2.338,0,.248.045.406.045.7s-.069.5-.338.5c-.609,0-1.15-1.42-1.669-1.42a.2.2,0,0,0-.225.181c0,.27.45.765.45,1.013,0,.541-1.465.248-1.465.7,0,.2.2.27.473.27.474,0,1.218-.2,1.6-.2.226,0,.563.045.563.336,0,.316-.812.721-.812,1.014a.226.226,0,0,0,.248.2c.609,0,1.686-1.058,2.453-1.058.135,0,.473.067.473.27,0,.292-.766.81-.766,1.238a.228.228,0,0,0,.2.248c.4,0,.945-1.058,1.712-1.058.293,0,.722.113.948.113C83.272,30.357,83.34,30.245,83.34,30.176ZM83.926,41.1a13.7,13.7,0,0,1,1.551-3.132c-.738-.382-2.7-1.194-2.7-2.523,0-1.555,1.938-2.771,2.34-2.771.181,0,.226.158.226.451,0,.81-.383,2.117-.383,2.816,0,.63.406,1.24.766,1.24.383,0,1.443-1.352,1.443-2.682a3.037,3.037,0,0,0-2.746-3.109c-.609,0-1.714.991-4.306.991-4.842,0-5.947-4.8-5.947-6.893,0-.09.021-.113.044-.113a3.441,3.441,0,0,0,2.12.587c.789,0,1.511-.2,2.661-.2,2.7,0,3.894,1.871,5.563,4.258,1.009.63,3.423,1.645,3.423,4.506,0,2.523-2.683,3.92-3.332,6.624,1.032-.112,1.641-1.961,2.7-1.961.541,0,.789.429.789,1.106a4.9,4.9,0,0,1-1.646,3.4,1.532,1.532,0,0,0,.022-.338c0-.63-.247-1.531-.97-1.531-1.122,0-1.483,1.216-2.113,2.229-.654-2.3-1.533-4.371-3.11-5.632-1.6-1.284-4.347-.586-4.347-2.929,0-.632.407-1.532.407-2.253a1.054,1.054,0,0,0-.182-.654c2.165.812,1.4,2.252,2.73,3.74.829.947,3.128,1.848,4.458,5.745a4.275,4.275,0,0,0,.045-.607c0-3.335-4.414-6.6-4.8-7.954,2.564.293,3.015.925,4.232,4.3A13.992,13.992,0,0,1,83.926,41.1" transform="translate(-23.144 -7.919)" fill="#1766a6"/>
  <path id="Path_21" data-name="Path 21" d="M66.994,9.349c-1.579,0-2.616-.788-2.616-1.194a.313.313,0,0,1,.316-.337c.5,0,1.577.765,1.937.765.092,0,.158-.044.158-.18,0-.406-.383-1.081-.383-1.419,0-.091.068-.158.2-.158.608,0,1.51.248,1.985.248.158,0,.2-.09.2-.181,0-.5-1.466-1.464-1.466-1.757,0-.27,1.822-.677,1.822-1.1,0-.451-2.477-.136-2.477-.564,0-.315.474-.856.474-1.1,0-.113-.091-.158-.248-.158a17.77,17.77,0,0,1-1.736.428c-.225,0-.5-.045-.5-.361,0-.518.879-1.081,2.255-1.081,2.227,0,3.558,1.532,3.558,4.1C70.485,8.538,68.212,9.349,66.994,9.349ZM62.6,5.069c0-.248-.881-.721-.881-.991,0-.045.044-.067.112-.067.249,0,.678.09,1.017.09.293,0,.338-1.262.559-1.262.158,0,.427,1.194.677,1.194.292,0,.833-.338,1.059-.338.045,0,.09.022.09.068,0,.158-.563.765-.563.945,0,.2,1.263.451,1.263.632,0,.226-1.286.2-1.286.406,0,.156.474.788.474.991a.06.06,0,0,1-.068.068c-.181,0-.879-.316-1.082-.316-.248,0-.649.924-.852.924-.067,0-.112-.09-.112-.2l-.045-.9a.16.16,0,0,0-.158-.181c-.271,0-.79-.023-.949-.023-.113,0-.158-.022-.158-.067C61.7,5.857,62.6,5.226,62.6,5.069Zm-.656,3.693c.362,0,.429.88.5,1.4.045.271.09.293.2.293.271,0,.7-1.036.988-1.036.427,0,1.578,1.194,3.494,1.194a5.133,5.133,0,0,0,5.294-5.294c0-3.267-2.3-5.182-5.475-5.182-1.509,0-2.616.744-3.2.744C63.391.9,62.851,0,62.579,0c-.112,0-.225.224-.225.607,0,.248,0,1.036-.271,1.036-.542,0-2.636-1.553-2.636-.991,0,.519,1.4,2.1,1.4,2.5s-1.373.789-1.373,1.059c0,.5,1.464.585,1.464,1.217S59.4,6.555,59.4,7.029c0,.383,1.533.113,1.533.585s-1.126,2.05-1.126,2.5c0,.114.022.114.111.114.429,0,1.713-1.465,2.029-1.465" transform="translate(-18.536)" fill="#1766a6"/>
  <path id="Path_22" data-name="Path 22" d="M45.008,69.487a1.033,1.033,0,0,1-.248.653,1.658,1.658,0,0,0-1.262-.675c-2.32,0-1.442,3.357-3.92,3.357a11.72,11.72,0,0,1-1.509-.136c-.158,0-.248.068-.248.2,0,.587.834,2.027,3.154,2.027s4.551-1.419,4.551-3.178a2.35,2.35,0,0,0-.2-.922.66.66,0,0,1,.519-.226c.36,0,.563.407.9.407a.617.617,0,0,0,.632-.632.682.682,0,0,0-.427-.633.775.775,0,0,0,.315-.607.716.716,0,0,0-.722-.743.646.646,0,0,0-.495.223c-.044-.4-.27-.786-.7-.786a.581.581,0,0,0-.587.632c0,.358.248.652.248,1.035" transform="translate(-11.802 -21.164)" fill="#1766a6"/>
  <path id="Path_23" data-name="Path 23" d="M29.576,63.213c1.8.448,2.7,1.417,2.883,2.567a5,5,0,0,0,.833,2.455,3.892,3.892,0,0,0,2.637,1.192c.811,0,1.463-.268,1.463-1.012a3.09,3.09,0,0,0-2.726-2.636c-.158,0-.36.023-.586.023a1.077,1.077,0,0,1-.676-.2c-.36-.316-.473-2.006-1.149-3.019A2.833,2.833,0,0,0,29.6,61.137c-.788,0-1.668.427-1.668,1.059C27.931,62.581,28.134,62.851,29.576,63.213Zm6.286,5.045c-.677,0-1.69-.722-1.69-1.128a.546.546,0,0,1,.562-.519c.564,0,1.577.7,1.577,1.286,0,.158-.112.361-.449.361" transform="translate(-8.716 -19.078)" fill="#1766a6"/>
  <path id="Path_24" data-name="Path 24" d="M36.271,43.627c0-1.442,3.425-2.208,3.425-3.988a2.947,2.947,0,0,0-.316-1.194A3.625,3.625,0,0,1,41.453,41.1c0,1.555-1.622,2.276-1.622,3.245,0,1.126,1.734,1.306,1.734,2.7,0,1.148-1.645,2.478-1.645,3.965a2.25,2.25,0,0,0,2.049,2.252,5.2,5.2,0,0,1-1.148.158c-2.276,0-4.619-1.869-4.619-4.1a3.845,3.845,0,0,1,1.193-2.77,3.22,3.22,0,0,0,1.668.9c.36,0,.519-.18.519-.45C39.584,46.172,36.271,45.407,36.271,43.627ZM43.458,55c-.773.354-1.081.293-1.081,1.082,0,.292-.068.673-.068.877,0,.27.045.429.36.429a2.883,2.883,0,0,0,2.1-2.546c0-.316-.181-.449-.384-.449C44.2,54.4,44,54.756,43.458,55Zm-.09-1.623c0-1.013-2.1-1.036-2.1-2.568a3.512,3.512,0,0,1,.744-1.736,2.444,2.444,0,0,0,1.69,2.164c2,.742,2.275,1.868,2.275,3.064,0,2.028-1.419,4.551-5.069,4.551a5.13,5.13,0,0,1-5.025-4.822c0-.609.158-1.284.541-1.284.338,0,.451.27.721.539a4.69,4.69,0,0,0,3.718,1.284c1.442,0,2.5-.585,2.5-1.194" transform="translate(-11.199 -11.997)" fill="#1766a6"/>
  <path id="Path_25" data-name="Path 25" d="M21.655,59.555a.857.857,0,1,1-.95-.754A.856.856,0,0,1,21.655,59.555Zm-4.21.886A1.471,1.471,0,0,0,19.068,61.7a1.853,1.853,0,0,0,.744-.225,1.387,1.387,0,0,0,1.6,1.077,1.428,1.428,0,0,0,1.3-1.6,1.632,1.632,0,0,0-.135-.519s.109-.012.192-.027a1.5,1.5,0,0,0,1.294-1.6A1.463,1.463,0,0,0,22.5,57.5a1.418,1.418,0,0,0-.746.305,1.518,1.518,0,0,0-1.705-1.119,1.455,1.455,0,0,0-1.223,1.637,1.483,1.483,0,0,0,.113.45l-.224.033a1.518,1.518,0,0,0-1.264,1.635" transform="translate(-5.44 -17.682)" fill="#1766a6"/>
</svg>
