<svg xmlns="http://www.w3.org/2000/svg" width="86" height="86" viewBox="0 0 86 86">
  <g id="seo-optimization" transform="translate(-541 -221)">
    <rect id="Box" width="86" height="86" rx="12" transform="translate(541 221)" fill="#fff0f0"/>
    <g id="rocket" transform="translate(529.984 209.998)">
      <path id="Path_89" data-name="Path 89" d="M304.792,156.79a2.621,2.621,0,1,0,1.854.767A2.621,2.621,0,0,0,304.792,156.79Z" transform="translate(-243.621 -112.531)" fill="#ff6262"/>
      <path id="Path_90" data-name="Path 90" d="M75.765,33.776a.029.029,0,0,1,0-.009,2,2,0,0,0-1.486-1.5c-2.927-.714-7.531.047-12.634,2.09a40.632,40.632,0,0,0-13.218,8.37,31.5,31.5,0,0,0-2.9,3.323,12.874,12.874,0,0,0-5.753.924c-5.671,2.5-7.291,8.883-7.722,11.505a2.455,2.455,0,0,0,2.671,2.848h.013l6.317-.689c.008.081.017.154.024.222a3.375,3.375,0,0,0,.972,2.035l3.083,3.085a3.366,3.366,0,0,0,2.034.973l.211.023-.688,6.31V73.3a2.438,2.438,0,0,0,2.825,2.674c2.637-.424,9.021-2.024,11.51-7.726a12.989,12.989,0,0,0,.928-5.73,30.916,30.916,0,0,0,3.334-2.9A40.34,40.34,0,0,0,73.664,46.5C75.7,41.454,76.461,36.815,75.765,33.776ZM65.25,50.952a5.726,5.726,0,1,1,1.708-4.079A5.772,5.772,0,0,1,65.25,50.952Z" fill="#ffbebe"/>
      <path id="Path_91" data-name="Path 91" d="M59.185,340.936a1.571,1.571,0,0,0-1.08.262c-.628.429-1.258.853-1.895,1.267a1.466,1.466,0,0,1-2.063-1.964l1.193-2.063a1.571,1.571,0,0,0-1.489-2.447,6.016,6.016,0,0,0-3.5,1.715c-.359.36-1.453,1.455-2.041,5.624A35.154,35.154,0,0,0,48,346.942a1.571,1.571,0,0,0,1.571,1.612h.039a35.346,35.346,0,0,0,3.614-.314c4.171-.589,5.265-1.683,5.625-2.043a5.941,5.941,0,0,0,1.708-3.51A1.572,1.572,0,0,0,59.185,340.936Z" transform="translate(-14.409 -274.122)" fill="#ff6262"/>
    </g>
  </g>
</svg>
