<svg xmlns="http://www.w3.org/2000/svg" width="86" height="86" viewBox="0 0 86 86">
  <g id="design-media" transform="translate(-579 -221)">
    <rect id="Box" width="86" height="86" rx="12" transform="translate(579 221)" fill="#edecff"/>
    <g id="vector-graphic-design-svgrepo-com" transform="translate(597 224.304)">
      <g id="Group_7" data-name="Group 7" transform="translate(0 38.435)">
        <g id="Group_6" data-name="Group 6">
          <rect id="Rectangle_5" data-name="Rectangle 5" width="6.522" height="6.522" fill="#b4adff"/>
        </g>
      </g>
      <g id="Group_9" data-name="Group 9" transform="translate(43.478 38.435)">
        <g id="Group_8" data-name="Group 8">
          <rect id="Rectangle_6" data-name="Rectangle 6" width="6.522" height="6.522" fill="#b4adff"/>
        </g>
      </g>
      <g id="Group_11" data-name="Group 11" transform="translate(21.739 16.696)">
        <g id="Group_10" data-name="Group 10">
          <path id="Path_65" data-name="Path 65" d="M222.609,16.7v6.522h6.522V16.7Z" transform="translate(-222.609 -16.696)" fill="#b4adff"/>
        </g>
      </g>
      <g id="Group_13" data-name="Group 13" transform="translate(23.37 44.413)">
        <g id="Group_12" data-name="Group 12">
          <path id="Path_66" data-name="Path 66" d="M240.934,300.522a1.63,1.63,0,1,0,1.63,1.63A1.632,1.632,0,0,0,240.934,300.522Z" transform="translate(-239.304 -300.522)" fill="#4a3aff"/>
        </g>
      </g>
      <g id="Group_15" data-name="Group 15" transform="translate(11.956 26.479)">
        <g id="Group_14" data-name="Group 14">
          <path id="Path_67" data-name="Path 67" d="M141.063,124.4c-1.163-2.71-2.145-5.443-2.847-7.535h-1.109v14.954a4.891,4.891,0,1,1-3.261,0V116.869h-1.108c-.7,2.085-1.677,4.805-2.836,7.51-3.294,7.686-6.018,10.425-7.469,10.425v3.261c2.506,0,5.978,2.833,5.978,8.152h14.13c0-5.319,3.472-8.152,5.978-8.152V134.8C147.072,134.8,144.353,132.072,141.063,124.4Z" transform="translate(-122.434 -116.869)" fill="#4a3aff"/>
        </g>
      </g>
      <g id="Group_17" data-name="Group 17" transform="translate(15.217 59.087)">
        <g id="Group_16" data-name="Group 16">
          <rect id="Rectangle_7" data-name="Rectangle 7" width="19.565" height="4.348" fill="#4a3aff"/>
        </g>
      </g>
      <g id="Group_19" data-name="Group 19" transform="translate(0.543 17.783)">
        <g id="Group_18" data-name="Group 18">
          <path id="Path_68" data-name="Path 68" d="M9.172,28.369a2.173,2.173,0,1,0-1.434,3.8h0a2.157,2.157,0,0,0,1.434-.543H18.1a23.5,23.5,0,0,0-4.6,3.584,23.185,23.185,0,0,0-5.924,10H11a20.335,20.335,0,0,1,12.5-12.5v-4.35Z" transform="translate(-5.565 -27.826)" fill="#b4adff"/>
        </g>
      </g>
      <g id="Group_21" data-name="Group 21" transform="translate(31.522 17.783)">
        <g id="Group_20" data-name="Group 20">
          <path id="Path_69" data-name="Path 69" d="M338.543,32.174h0a2.174,2.174,0,1,0-1.433-3.8H322.783v4.35a20.334,20.334,0,0,1,12.5,12.5h3.427a23.186,23.186,0,0,0-5.924-10,23.5,23.5,0,0,0-4.6-3.584h8.925A2.163,2.163,0,0,0,338.543,32.174Z" transform="translate(-322.783 -27.826)" fill="#b4adff"/>
        </g>
      </g>
    </g>
  </g>
</svg>
